<?xml version="1.0" standalone="no"?>
<!DOCTYPE svg PUBLIC "-//W3C//DTD SVG 20010904//EN"
 "http://www.w3.org/TR/2001/REC-SVG-20010904/DTD/svg10.dtd">
<svg version="1.0" xmlns="http://www.w3.org/2000/svg"
 width="512.000000pt" height="512.000000pt" viewBox="0 0 512.000000 512.000000"
 preserveAspectRatio="xMidYMid meet">

<g transform="translate(0.000000,512.000000) scale(0.100000,-0.100000)"
fill="#000000" stroke="none">
<path d="M2510 4270 c-8 -5 -31 -10 -51 -10 -185 -1 -601 -160 -811 -310 -110
-79 -319 -292 -426 -435 -142 -191 -240 -409 -294 -656 -20 -91 -23 -132 -23
-324 1 -202 3 -229 27 -330 62 -264 188 -513 376 -746 110 -137 292 -290 458
-388 150 -88 411 -173 614 -201 47 -6 93 -16 102 -21 24 -12 285 -12 293 1 3
6 18 10 32 10 53 0 232 43 372 89 242 80 391 165 544 310 104 99 147 154 147
188 0 23 -6 19 -65 -35 -130 -119 -289 -178 -545 -201 -143 -13 -302 10 -490
71 -211 68 -470 245 -636 434 -86 98 -118 149 -174 275 -152 340 -189 629
-124 949 49 237 162 427 389 656 190 191 333 281 557 353 201 64 362 76 555
41 150 -27 233 -54 331 -107 46 -25 86 -43 88 -40 7 7 -128 130 -197 180 -143
101 -354 187 -569 228 -127 25 -452 38 -480 19z"/>
<path d="M3953 3072 c-7 -4 -16 -22 -19 -39 -11 -55 59 -103 105 -74 17 11 17
71 1 101 -11 21 -62 28 -87 12z"/>
<path d="M3036 2891 c-31 -79 -89 -173 -132 -213 -16 -15 -54 -41 -84 -57 -30
-17 -50 -31 -43 -31 20 0 120 -98 153 -150 41 -63 75 -166 91 -269 16 -107 43
-110 68 -6 36 147 115 283 203 353 69 53 78 61 78 71 0 5 -25 21 -56 37 -79
40 -146 117 -203 236 l-47 100 -28 -71z"/>
<path d="M2385 2373 c-10 -14 -36 -46 -58 -70 l-40 -44 25 -27 c29 -31 52 -73
62 -116 l7 -30 30 55 c16 29 43 66 59 82 l31 27 -24 33 c-14 17 -34 51 -46 75
-12 23 -23 42 -25 42 -2 0 -12 -12 -21 -27z"/>
<path d="M4031 2346 c-7 -8 -21 -41 -30 -73 -14 -48 -25 -63 -62 -90 -24 -18
-55 -41 -69 -51 l-24 -19 46 -21 c54 -24 87 -73 114 -170 9 -35 20 -59 24 -55
3 4 19 40 34 79 30 80 80 145 126 164 l30 12 -45 29 c-50 32 -87 85 -106 150
-16 55 -23 64 -38 45z"/>
<path d="M3170 1740 c-19 -36 -8 -73 24 -85 24 -8 31 -6 47 14 22 26 25 61 7
79 -20 20 -66 15 -78 -8z"/>
</g>
</svg>
