<?xml version="1.0" standalone="no"?>
<!DOCTYPE svg PUBLIC "-//W3C//DTD SVG 20010904//EN"
 "http://www.w3.org/TR/2001/REC-SVG-20010904/DTD/svg10.dtd">
<svg version="1.0" xmlns="http://www.w3.org/2000/svg"
 width="512.000000pt" height="512.000000pt" viewBox="0 0 512.000000 512.000000"
 preserveAspectRatio="xMidYMid meet">

<g transform="translate(0.000000,512.000000) scale(0.100000,-0.100000)"
fill="#000000" stroke="none">
<path d="M2045 4794 c-275 -91 -664 -219 -865 -286 -230 -76 -374 -128 -388
-141 -34 -31 -52 -70 -52 -112 0 -43 793 -2468 819 -2505 28 -39 80 -70 119
-70 20 0 111 24 202 54 1076 353 1550 510 1575 525 40 23 68 74 68 125 1 28
-128 433 -403 1266 -221 674 -409 1235 -417 1247 -19 28 -91 63 -129 62 -16 0
-254 -75 -529 -165z m925 -1202 c216 -657 389 -1197 385 -1200 -10 -10 -1659
-551 -1664 -547 -6 7 -791 2399 -787 2402 1 2 203 69 447 149 244 80 617 203
829 273 212 70 388 125 392 122 3 -3 183 -543 398 -1199z"/>
<path d="M1770 4410 c-370 -122 -489 -165 -504 -182 -14 -18 -17 -33 -12 -72
7 -63 -14 -109 -59 -131 -39 -18 -65 -50 -65 -80 0 -11 126 -402 280 -870 219
-667 284 -854 302 -868 18 -15 32 -18 76 -12 63 8 89 -5 127 -66 14 -22 37
-45 51 -51 29 -14 -12 -25 569 164 308 101 437 147 455 164 21 21 24 31 22 85
-3 73 11 100 67 128 41 21 51 37 51 79 0 14 -124 404 -276 866 -225 688 -280
845 -301 864 -22 20 -31 22 -84 16 -65 -7 -54 -14 -153 99 -14 15 -33 27 -43
27 -10 -1 -236 -72 -503 -160z m471 -36 c28 -34 101 -75 155 -87 l56 -13 253
-768 253 -769 -39 -39 c-35 -37 -64 -100 -71 -158 -3 -24 -25 -32 -406 -158
l-403 -133 -46 40 c-43 38 -119 71 -164 71 -14 0 -25 22 -47 93 -16 50 -129
397 -252 769 l-223 677 37 42 c42 46 60 84 70 145 l7 41 397 130 c218 72 400
132 403 132 4 1 12 -6 20 -15z"/>
<path d="M1921 3863 c-18 -15 -28 -51 -56 -201 -36 -192 -45 -215 -115 -277
-13 -11 -58 -59 -101 -107 -62 -69 -79 -94 -79 -118 0 -60 27 -72 225 -109
141 -26 185 -37 205 -55 14 -12 74 -68 134 -125 116 -109 143 -126 179 -112
44 17 54 43 88 226 l32 180 128 136 c69 75 130 145 133 156 9 28 -8 69 -36 86
-13 8 -102 29 -198 47 l-175 32 -50 47 c-231 217 -223 211 -259 211 -18 0 -43
-8 -55 -17z m200 -307 l89 -83 120 -23 c66 -12 120 -25 120 -29 0 -4 -12 -18
-26 -32 -15 -13 -52 -54 -84 -90 -56 -65 -57 -68 -74 -165 -27 -155 -19 -151
-122 -53 l-90 85 -104 19 c-158 28 -153 18 -57 121 46 50 87 102 90 115 3 13
13 68 23 122 10 53 20 97 22 97 2 0 44 -38 93 -84z"/>
<path d="M701 1826 c-49 -18 -111 -74 -132 -120 -25 -56 -25 -147 1 -201 14
-29 173 -187 541 -541 287 -274 560 -534 607 -576 144 -130 285 -188 461 -188
66 0 288 28 735 92 676 97 783 106 911 79 33 -7 195 -57 361 -112 165 -54 308
-99 318 -99 9 0 28 11 41 25 l25 24 0 635 0 635 -26 20 c-26 20 -38 21 -317
21 l-291 0 -60 40 c-354 230 -799 236 -1151 15 l-87 -55 -327 0 c-182 0 -342
-4 -361 -10 -90 -25 -170 -101 -200 -191 l-17 -49 -419 272 c-230 149 -435
277 -454 284 -44 16 -114 16 -159 0z m584 -456 c264 -171 500 -331 525 -355
25 -24 65 -54 90 -67 45 -23 46 -23 492 -26 l446 -3 21 27 c28 35 27 66 -3
101 l-24 28 -430 5 -430 5 -27 25 c-75 70 -70 174 12 227 24 16 65 19 388 23
l360 5 50 38 c138 107 336 170 530 171 178 1 319 -37 467 -124 l68 -41 0 -438
0 -437 -72 9 c-101 12 -124 10 -848 -93 -375 -54 -676 -92 -720 -92 -86 1
-178 26 -257 72 -33 19 -268 236 -633 586 -546 523 -580 557 -580 590 0 42 29
74 68 74 19 0 174 -95 507 -310z m3125 -514 l0 -505 -212 72 -213 72 -3 433
-2 432 215 0 215 0 0 -504z"/>
</g>
</svg>
