<?xml version="1.0" standalone="no"?>
<!DOCTYPE svg PUBLIC "-//W3C//DTD SVG 20010904//EN"
 "http://www.w3.org/TR/2001/REC-SVG-20010904/DTD/svg10.dtd">
<svg version="1.0" xmlns="http://www.w3.org/2000/svg"
 width="512.000000pt" height="512.000000pt" viewBox="0 0 512.000000 512.000000"
 preserveAspectRatio="xMidYMid meet">

<g transform="translate(0.000000,512.000000) scale(0.100000,-0.100000)"
fill="#000000" stroke="none">
<path d="M2550 4424 c0 -9 -21 -109 -46 -223 -25 -113 -67 -332 -93 -486 -52
-301 -60 -328 -144 -447 l-40 -58 -76 63 c-175 144 -607 494 -620 502 -10 6
-11 4 -4 -9 12 -21 317 -367 431 -488 100 -108 142 -164 142 -193 0 -32 -56
-102 -104 -130 -38 -22 -67 -27 -262 -45 -260 -24 -847 -89 -852 -95 -2 -2 -1
-8 2 -13 7 -12 71 -19 361 -37 429 -27 657 -59 736 -101 42 -23 118 -105 159
-171 15 -23 14 -24 -312 -405 -179 -209 -298 -355 -298 -365 0 -3 28 19 62 49
56 48 144 131 538 505 l118 113 35 -39 c71 -78 96 -142 111 -286 3 -27 17
-135 30 -240 14 -104 28 -226 31 -270 8 -106 52 -520 70 -666 8 -63 15 -136
15 -162 0 -35 4 -47 15 -47 8 0 15 3 15 8 0 4 6 39 14 77 8 39 24 167 36 285
25 261 71 648 111 945 32 238 51 300 111 362 l31 32 87 -82 c49 -45 175 -165
282 -267 242 -232 367 -344 374 -338 5 6 -276 341 -396 473 -108 118 -250 294
-250 310 0 19 71 105 113 138 88 67 123 75 498 122 193 25 411 50 483 56 141
13 180 22 174 42 -6 15 -82 23 -338 36 -665 32 -688 35 -760 71 -50 26 -120
104 -120 135 0 18 62 94 232 287 127 145 258 294 291 331 33 37 57 70 54 73
-3 3 -45 -28 -94 -69 -98 -84 -573 -469 -590 -480 -6 -4 -18 -4 -26 -1 -20 7
-90 126 -110 185 -15 44 -61 278 -121 616 -33 184 -87 413 -98 413 -4 0 -8 -7
-8 -16z"/>
</g>
</svg>
